<?xml version="1.0" encoding="utf-8"?>
<!-- Generator: Adobe Illustrator 16.0.0, SVG Export Plug-In . SVG Version: 6.00 Build 0)  -->
<!DOCTYPE svg PUBLIC "-//W3C//DTD SVG 1.1//EN" "http://www.w3.org/Graphics/SVG/1.1/DTD/svg11.dtd">
<svg version="1.1" id="Warstwa_1" xmlns:xml="http://www.w3.org/XML/1998/namespace"
	 xmlns="http://www.w3.org/2000/svg" xmlns:xlink="http://www.w3.org/1999/xlink" x="0px" y="0px" width="1682.141px"
	 height="257.064px" viewBox="0 291.029 1682.141 257.064" enable-background="new 0 291.029 1682.141 257.064"
	 xml:space="preserve">
<g id="surface2" transform="matrix(-0.9115570187568665,0.13644327223300934,-0.13644327223300934,-0.9115570187568665,480,178)">
	<path fill="#FF0000" d="M555.936-251.366c-5.182-6.274-10.368-12.549-15.822-18.824c0.545,3.274,1.363,6.275,1.908,9.275
		c-6.547-1.638-15.55-2.455-27.009-2.728c-11.458-0.272-24.826,0-39.558,0.819c-15.005,0.819-30.555,2.455-46.651,4.367
		c-16.369,1.909-32.465,4.365-48.287,7.366c-15.824,3.001-30.556,6.275-44.195,10.094c-13.642,3.819-25.099,7.912-34.921,12.277
		c0,5.183,0.272,9.276,0.546,12.822c0.273,3.546,0.817,7.093,1.363,10.64c0.547,3.546,1.364,8.183,2.456,13.368
		c4.637-1.636,11.186-3.546,20.187-5.73c9.003-2.182,19.644-4.637,31.648-7.366c12.003-2.728,24.826-5.457,38.739-8.185
		c13.913-2.728,27.828-5.728,42.013-8.457c14.459-2.729,28.372-5.184,41.74-7.912c13.368-2.455,25.918-4.364,37.102-6.275
		c11.185-1.637,20.733-3.001,28.646-4.092c0.546,3.545,1.365,7.366,1.911,11.184C550.479-236.36,553.207-244,555.936-251.366
		 M551.297-176.887c-8.73,22.098-20.187,40.648-34.919,55.927c-14.458,15.278-31.101,27.007-49.926,35.465
		c-18.824,8.459-38.74,13.641-60.019,15.278c-21.279,1.637-42.832,0.001-64.93-4.911c-1.091-1.637-2.728-3.819-4.366-6.82
		c-1.91-3.002-3.545-6.002-5.183-9.276c-1.638-3.002-3.275-5.457-4.364-7.639c24.826,4.637,48.833,6.001,71.749,4.365
		c22.916-1.91,43.924-6.548,63.565-13.914c19.643-7.366,37.103-16.915,52.107-28.919
		C530.019-148.787,542.023-161.882,551.297-176.887"/>
	<path fill="#FF0000" d="M344.778-308.929c7.638-2.727,16.913-5.184,28.1-7.637c11.186-2.457,23.189-4.367,36.284-5.458
		s26.191-1.363,39.833-0.273c13.641,0.818,26.734,3.274,39.285,7.366c12.55,4.092,24.008,10.094,34.374,18.005
		c-10.639-12.003-22.098-21.552-34.919-28.374c-12.55-7.091-25.373-12.003-38.741-14.73c-13.366-3.001-26.463-4.093-39.285-3.82
		c-13.095,0.274-25.372,1.91-37.103,4.638c-11.731,2.729-22.098,6.002-31.646,9.822c-0.546-2.184-0.818-4.366-1.092-6.275
		c-5.456,8.185-11.185,16.369-16.64,24.827c7.366,3.546,15.005,7.094,22.917,10.912C345.869-303.2,345.323-306.201,344.778-308.929
		 M556.209-198.439c-7.638,13.641-17.46,25.645-29.464,36.013c-12.003,10.367-25.099,19.096-39.285,26.189
		c-14.188,7.366-28.646,13.095-43.378,17.187c-14.731,4.091-28.918,7.093-42.013,8.457c-13.367,1.363-25.098,1.091-35.194-0.273
		c-3.274-7.094-6.546-15.005-9.822-23.462c15.55-0.273,32.194-1.637,49.925-4.092c17.46-2.455,35.193-6.275,52.926-11.458
		c17.734-5.183,34.922-11.731,51.563-19.643C527.836-177.432,542.841-186.981,556.209-198.439"/>
	<path fill="#FF0000" d="M258.023-174.977c-0.546-3.546-1.364-7.093-2.184-10.913c-5.182,7.094-10.365,14.187-15.277,21.007
		c7.913,7.366,16.096,14.732,24.554,22.371c-0.818-2.728-1.364-5.729-2.184-8.457c15.006,2.455,31.647,3.547,49.381,3.274
		c17.734-0.273,36.012-1.91,55.107-4.638c18.824-2.728,37.65-6.274,56.474-10.639c18.552-4.365,36.284-9.003,53.198-14.459
		s31.918-10.913,45.288-16.642c13.367-5.73,24.552-11.458,33.011-17.187c-0.273-2.73-0.273-5.456-0.546-7.912
		c-0.273-2.457-0.818-5.183-1.091-7.912c-4.365,1.637-11.458,4.091-22.098,7.094c-10.366,3-22.644,6.275-37.375,9.822
		c-14.46,3.546-30.283,7.365-47.47,11.185c-17.188,3.819-34.648,7.366-52.38,10.639c-18.006,3.274-35.467,6.275-52.38,8.731
		c-17.187,2.456-33.011,4.092-47.47,4.91C280.393-173.885,268.117-173.887,258.023-174.977"/>
	<path fill="#000080" d="M539.566-274.554c-5.182-6.003-11.73-10.912-19.915-14.732c-8.184-3.82-17.187-7.094-27.008-9.276
		c-9.549-2.455-19.098-4.092-28.371-5.183c-9.549-1.091-18.007-1.91-25.372-1.91c-7.366-0.272-13.097-0.273-16.915-0.272
		c-20.735,1.093-40.378,4.365-59.201,9.821c-18.823,5.183-36.011,11.733-51.288,19.369c-12.55,6.275-22.917,12.276-31.648,18.551
		c-7.367,5.184-13.639,10.094-18.279,14.733c0,1.364-0.273,3.274-0.272,6c0,2.455,0.001,5.184,0.273,7.64c0,2.455,0,4.638,0,6.002
		c7.093-6.002,16.367-11.458,27.553-16.915c11.186-5.455,24.281-10.64,38.466-15.278c14.186-4.638,29.191-9.003,44.743-12.549
		c15.823-3.82,31.647-6.82,47.743-9.003c16.094-2.456,31.373-3.82,46.378-4.638c15.004-0.546,28.646-0.273,41.195,1.09
		C519.924-280.556,530.564-278.101,539.566-274.554"/>
</g>
<g id="surface4">
	
		<text id="_x30_" transform="matrix(1 0 0 1 333.2239 481.4895)" fill="#000080" font-family="'Futura-Medium'" font-size="168.9526">STED</text>
	
		<text id="_x31_" transform="matrix(1 0.0011 -0.0011 1 770.1848 477.4583)" fill="#000080" font-family="'Futura-Medium'" font-size="156.0537">Speak Polish</text>
</g>
</svg>
